# Created with Anim8or 1.00
# Object "object03":

mtllib bloque2.mtl

# Shape "mesh01":
g mesh01
# No. points 24:
v -18.8788 -8.36944 -2.53909
v 19.0038 -8.36944 -2.5391
v 19.0038 -8.36944 2.5391
v -18.8788 -8.36944 2.53911
v -18.8788 7.50876 -2.53909
v 19.0038 7.50876 -2.5391
v 19.0038 7.50876 2.5391
v -18.8788 7.50876 2.53911
v 23.0357 -8.36944 -2.5391
v 23.0357 7.50876 -2.5391
v 23.0357 -8.36944 2.5391
v 23.0357 7.50876 2.5391
v 19.4021 9.3903 2.03747
v 22.6374 9.3903 2.03747
v 19.4021 9.3903 -2.03747
v 22.6374 9.3903 -2.03747
v -22.8933 -8.36944 -2.53908
v -22.8933 7.50876 -2.53908
v -22.8933 -8.36944 2.53912
v -22.8933 7.50876 2.53912
v -19.2597 9.3903 2.03748
v -22.4951 9.3903 2.03748
v -19.2597 9.3903 -2.03745
v -22.4951 9.3903 -2.03745

# No. normals 120:
vn 0 0 -1
vn 0 0 1
vn 0 1 0
vn -1 0 0
vn 0 -1 0
vn 0 0 -1
vn 0 -1 0
vn 0 0 1
vn 1 0 0
vn 0 0.25761 0.96625
vn -0.97832 0.20709 0
vn 0 0.25761 -0.96625
vn 0.97832 0.20709 0
vn 0 1 0
vn 0 0 -1
vn 0 -1 0
vn 0 0 1
vn -1 0 0
vn 0 0.25761 0.96625
vn 0.98012 0.19842 0
vn 0 0.25761 -0.96625
vn -0.97832 0.20709 0
vn 0 1 0
vn 0 0 -1
vn 0 -1 0
vn 0 0 -1
vn 0 -1 0
vn -1 0 0
vn 0 0 -1
vn 0 -1 0
vn 0 0 1
vn 0 -1 0
vn 0 0 1
vn 0 0 1
vn 0 -1 0
vn 0 -1 0
vn -1 0 0
vn 0 0 -1
vn 0 0.12991 -0.99153
vn 0.98012 0.19842 0
vn -1 0 0
vn 0 1 0
vn 0 0.08652 -0.99625
vn -0.97832 0.20709 0
vn 0 1 0
vn 0 0.08652 0.99625
vn -0.97832 0.20709 0
vn 0 1 0
vn 0 0 1
vn 0.98012 0.19842 0
vn 0 0.12990 0.99153
vn -1 0 0
vn 0 1 0
vn 0 0 -1
vn 1 0 0
vn 0 -1 0
vn 0 0.12991 -0.99153
vn 0.99457 0.10411 0
vn 0 -1 0
vn 1 0 0
vn 0 0 1
vn 0 0.12991 0.99153
vn 0.99457 0.10411 0
vn 0 0.25761 0.96625
vn 0 1 0
vn -0.97832 0.20709 0
vn 0 0.25761 0.96625
vn 0 1 0
vn 0.97832 0.20709 0
vn -0.97832 0.20709 0
vn 0 1 0
vn 0 0.25761 -0.96625
vn 0 0.25761 -0.96625
vn 0 1 0
vn 0.97832 0.20709 0
vn 0 0 -1
vn -1 0 0
vn 0 -1 0
vn 0 0.12991 -0.99153
vn -0.99457 0.10411 0
vn 0 -1 0
vn -1 0 0
vn 0 0 1
vn 0 0.12990 0.99153
vn -0.99457 0.10411 0
vn 0 0.25761 0.96625
vn 0 1 0
vn 0.98012 0.19842 0
vn 0 0.25761 0.96625
vn 0 1 0
vn -0.97832 0.20709 0
vn 0.98012 0.19842 0
vn 0 1 0
vn 0 0.25761 -0.96625
vn 0 0.25761 -0.96625
vn 0 1 0
vn -0.97832 0.20709 0
vn 0 0 -1
vn 0 0 1
vn 0 1 0
vn -1 0 0
vn 0 -1 0
vn 0 0 -1
vn 0 -1 0
vn 0 0 1
vn 1 0 0
vn 0 0.25761 0.96625
vn -0.97832 0.20709 0
vn 0 0.25761 -0.96625
vn 0.97832 0.20709 0
vn 0 1 0
vn 0 0 -1
vn 0 -1 0
vn 0 0 1
vn -1 0 0
vn 0 0.25761 0.96625
vn 0.98012 0.19842 0
vn 0 0.25761 -0.96625
vn -0.97832 0.20709 0
vn 0 1 0

# No. texture coordinates 36:
vt 0.01426 0.41573
vt 0.21719 0.41573
vt 0.21719 0.56198
vt 0.01426 0.56198
vt 0.21719 0.41573
vt 0.01426 0.41573
vt 0.01426 0.56198
vt 0.21719 0.56198
vt 0.22078 0.54070
vt 0.22078 0.41200
vt 0.24722 0.41200
vt 0.24722 0.54070
vt 0.22078 0.41200
vt 0.24722 0.41200
vt 0.22078 0.54070
vt 0.24722 0.54070
vt 0.22339 0.55595
vt 0.24461 0.55595
vt 0.22339 0.55595
vt 0.24461 0.55595
vt 0.22078 0.54070
vt 0.22078 0.41200
vt 0.24722 0.41200
vt 0.24722 0.54070
vt 0.22078 0.41200
vt 0.24722 0.41200
vt 0.22078 0.54070
vt 0.24722 0.54070
vt 0.22339 0.55595
vt 0.24461 0.55595
vt 0.22339 0.55595
vt 0.24461 0.55595
vt 0.01779 0.49104
vt 0.21275 0.49104
vt 0.21275 0.42825
vt 0.01779 0.42825

# No. faces 23:

usemtl tiles

f 5/4/38 6/3/43 2/2/29 1/1/24
f 7/8/46 8/7/49 4/6/33 3/5/31
f 8/36/53 7/35/48 6/34/45 5/33/42
f 4/6/37 8/7/52 5/4/41 1/1/28
f 2/2/30 3/5/32 4/6/36 1/1/27
f 10/12/57 9/11/54 2/10/29 6/9/43
f 9/11/56 11/14/59 3/13/32 2/10/30
f 11/14/61 12/16/62 7/15/46 3/13/31
f 10/12/58 12/16/63 11/14/60 9/11/55
f 14/18/67 13/17/64 7/15/46 12/16/62
f 13/17/66 15/19/70 6/9/44 7/15/47
f 15/19/72 16/20/73 10/12/57 6/9/43
f 16/20/75 14/18/69 12/16/63 10/12/58
f 14/18/68 16/20/74 15/19/71 13/17/65
f 18/24/79 5/21/39 1/22/26 17/23/76
f 17/23/78 1/22/25 4/25/35 19/26/81
f 19/26/83 4/25/34 8/27/51 20/28/84
f 18/24/80 17/23/77 19/26/82 20/28/85
f 22/30/89 20/28/84 8/27/51 21/29/86
f 21/29/88 8/27/50 5/21/40 23/31/92
f 23/31/94 5/21/39 18/24/79 24/32/95
f 24/32/97 18/24/80 20/28/85 22/30/91
f 22/30/90 21/29/87 23/31/93 24/32/96

# End of Object "object03"
