# Created with Anim8or 1.00
# Object "object02":

mtllib bloque1.mtl

# Shape "mesh01":
g mesh01
# No. points 8:
v -6.75396 -13.1943 -1.24509
v 6.60723 -13.1943 -1.24509
v 6.60723 -13.1943 1.24509
v -6.75396 -13.1943 1.24509
v -6.75396 13.0475 -1.24509
v 6.60723 13.0475 -1.24509
v 6.60723 13.0475 1.24509
v -6.75396 13.0475 1.24509

# No. normals 30:
vn 0 0 -1
vn 0 0 1
vn 1 0 0
vn 0 1 0
vn -1 0 0
vn 0 -1 0
vn 0 0 -1
vn 0 -1 0
vn -1 0 0
vn 0 0 -1
vn 0 -1 0
vn 1 0 0
vn 0 0 1
vn 0 -1 0
vn 1 0 0
vn 0 0 1
vn 0 -1 0
vn -1 0 0
vn 0 0 -1
vn -1 0 0
vn 0 1 0
vn 0 0 -1
vn 0 1 0
vn 1 0 0
vn 0 0 1
vn 0 1 0
vn 1 0 0
vn 0 0 1
vn -1 0 0
vn 0 1 0

# No. texture coordinates 8:
vt 0.01286 0.59345
vt 0.21199 0.59345
vt 0.21199 0.99158
vt 0.01286 0.99158
vt 0.21199 0.59345
vt 0.01286 0.59345
vt 0.01286 0.99158
vt 0.21199 0.99158

# No. faces 6:

usemtl tiles

f 5/4/19 6/3/22 2/2/10 1/1/7
f 7/8/25 8/7/28 4/6/16 3/5/13
f 6/3/24 7/8/27 3/5/15 2/2/12
f 8/7/30 7/8/26 6/3/23 5/4/21
f 4/6/18 8/7/29 5/4/20 1/1/9
f 2/2/11 3/5/14 4/6/17 1/1/8

# End of Object "object02"
